{
   "accessors" : [
      {
         "bufferView" : 2,
         "byteOffset" : 0,
         "componentType" : 5126,
         "count" : 672,
         "max" : [ 0.6320426464080811, 0.6940805315971375, 0.7226724624633789, 1 ],
         "min" : [ 0.6320426464080811, 0.6940805315971375, 0.7226724624633789, 1 ],
         "name" : "accessor_color_m0-PolyPaper15_-631060",
         "type" : "VEC4"
      },
      {
         "bufferView" : 2,
         "byteOffset" : 10752,
         "componentType" : 5126,
         "count" : 9744,
         "max" : [ 0.6320426464080811, 0.6940805315971375, 0.7226724624633789, 1 ],
         "min" : [ 0.6320426464080811, 0.6940805315971375, 0.7226724624633789, 1 ],
         "name" : "accessor_color_m1-PolyPaper15_-631058",
         "type" : "VEC4"
      },
      {
         "bufferView" : 2,
         "byteOffset" : 166656,
         "componentType" : 5126,
         "count" : 9744,
         "max" : [ 0.6320426464080811, 0.6940805315971375, 0.7226724624633789, 1 ],
         "min" : [ 0.6320426464080811, 0.6940805315971375, 0.7226724624633789, 1 ],
         "name" : "accessor_color_m2-PolyPaper15_-631010",
         "type" : "VEC4"
      },
      {
         "bufferView" : 0,
         "byteOffset" : 0,
         "componentType" : 5123,
         "count" : 684,
         "max" : [ 671 ],
         "min" : [ 0 ],
         "name" : "accessor_indices_0_m0-PolyPaper15_-631060",
         "type" : "SCALAR"
      },
      {
         "bufferView" : 0,
         "byteOffset" : 1368,
         "componentType" : 5123,
         "count" : 9918,
         "max" : [ 9743 ],
         "min" : [ 0 ],
         "name" : "accessor_indices_0_m1-PolyPaper15_-631058",
         "type" : "SCALAR"
      },
      {
         "bufferView" : 0,
         "byteOffset" : 21204,
         "componentType" : 5123,
         "count" : 9918,
         "max" : [ 9743 ],
         "min" : [ 0 ],
         "name" : "accessor_indices_0_m2-PolyPaper15_-631010",
         "type" : "SCALAR"
      },
      {
         "bufferView" : 1,
         "byteOffset" : 8064,
         "componentType" : 5126,
         "count" : 672,
         "max" : [ 0.9761993, 0.9592625, 0.9947934 ],
         "min" : [ -0.9803482, -0.973128, -0.9808230999999999 ],
         "name" : "accessor_normal_m0-PolyPaper15_-631060",
         "type" : "VEC3"
      },
      {
         "bufferView" : 1,
         "byteOffset" : 133056,
         "componentType" : 5126,
         "count" : 9744,
         "max" : [ 0.9994034000000001, 0.9998757, 0.9998795 ],
         "min" : [ -0.9998181, -0.9999869, -0.9993982 ],
         "name" : "accessor_normal_m1-PolyPaper15_-631058",
         "type" : "VEC3"
      },
      {
         "bufferView" : 1,
         "byteOffset" : 366912,
         "componentType" : 5126,
         "count" : 9744,
         "max" : [ 0.9998604, 0.9999416, 0.999174 ],
         "min" : [ -0.9978567, -0.9999558, -0.9998324 ],
         "name" : "accessor_normal_m2-PolyPaper15_-631010",
         "type" : "VEC3"
      },
      {
         "bufferView" : 1,
         "byteOffset" : 0,
         "componentType" : 5126,
         "count" : 672,
         "max" : [ 2.137077, 1.405143, -0.4958383 ],
         "min" : [ 0.9146834, 1.270761, -0.6615026000000001 ],
         "name" : "accessor_position_m0-PolyPaper15_-631060",
         "type" : "VEC3"
      },
      {
         "bufferView" : 1,
         "byteOffset" : 16128,
         "componentType" : 5126,
         "count" : 9744,
         "max" : [ 3.728669, 1.36395, -0.5364127 ],
         "min" : [ -2.034046, 0.9524676, -1.559692 ],
         "name" : "accessor_position_m1-PolyPaper15_-631058",
         "type" : "VEC3"
      },
      {
         "bufferView" : 1,
         "byteOffset" : 249984,
         "componentType" : 5126,
         "count" : 9744,
         "max" : [ 2.891962, 1.417835, -0.5343028 ],
         "min" : [ -1.939052, 0.9401542000000001, -1.47073 ],
         "name" : "accessor_position_m2-PolyPaper15_-631010",
         "type" : "VEC3"
      }
   ],
   "asset" : {
      "copyright" : "Unknown",
      "extras" : {
         "GOOGLE_processor_version" : 294144208
      },
      "generator" : "glTF 1-to-2 Upgrader for Google Blocks",
      "version" : "2.0"
   },
   "bufferViews" : [
      {
         "buffer" : 0,
         "byteLength" : 41040,
         "byteOffset" : 0,
         "name" : "ushortBufferView",
         "target" : 34963
      },
      {
         "buffer" : 0,
         "byteLength" : 483840,
         "byteOffset" : 41040,
         "byteStride" : 12,
         "name" : "vec3BufferView",
         "target" : 34962
      },
      {
         "buffer" : 0,
         "byteLength" : 322560,
         "byteOffset" : 524880,
         "byteStride" : 16,
         "name" : "vec4BufferView",
         "target" : 34962
      }
   ],
   "buffers" : [
      {
         "byteLength" : 847440,
         "name" : "model",
         "uri" : "model.bin"
      }
   ],
   "cameras" : [
      {
         "perspective" : {
            "yfov" : 0.7853981633974483,
            "znear" : 0.1000000014901161
         },
         "type" : "perspective"
      }
   ],
   "extensions" : {
      "KHR_lights_punctual" : {
         "lights" : [
            {
               "color" : [ 1, 0.9333333333333333, 0.8666666666666667 ],
               "intensity" : 0.25,
               "name" : "headLight",
               "type" : "directional"
            },
            {
               "color" : [ 1, 0.9333333333333333, 0.8666666666666667 ],
               "intensity" : 0.324999988079071,
               "name" : "keyLight",
               "type" : "directional"
            }
         ]
      }
   },
   "extensionsUsed" : [ "GOOGLE_backgrounds", "GOOGLE_camera_settings", "KHR_lights_punctual" ],
   "extras" : {
      "GOOGLE_initial_camera_motion" : {
         "motionPath" : "FULL_ROTATION"
      },
      "GOOGLE_lighting_rig" : {
         "disableShadows" : false
      }
   },
   "materials" : [
      {
         "alphaMode" : "OPAQUE",
         "doubleSided" : false,
         "name" : "BlocksPaper",
         "pbrMetallicRoughness" : {
            "baseColorFactor" : [ 1, 1, 1, 1 ],
            "metallicFactor" : 0,
            "roughnessFactor" : 0.6
         }
      },
      {
         "alphaMode" : "BLEND",
         "doubleSided" : false,
         "name" : "BlocksGlass",
         "pbrMetallicRoughness" : {
            "baseColorFactor" : [ 0.2, 0.2, 1, 0.3 ],
            "metallicFactor" : 1,
            "roughnessFactor" : 0.4
         }
      },
      {
         "alphaMode" : "OPAQUE",
         "doubleSided" : true,
         "name" : "BlocksGem",
         "pbrMetallicRoughness" : {
            "baseColorFactor" : [ 1, 0.4, 1, 1 ],
            "metallicFactor" : 0,
            "roughnessFactor" : 0.1
         }
      }
   ],
   "meshes" : [
      {
         "name" : "mesh_m0-PolyPaper15_-631060",
         "primitives" : [
            {
               "attributes" : {
                  "COLOR_0" : 0,
                  "NORMAL" : 6,
                  "POSITION" : 9
               },
               "indices" : 3,
               "material" : 0,
               "mode" : 4
            }
         ]
      },
      {
         "name" : "mesh_m1-PolyPaper15_-631058",
         "primitives" : [
            {
               "attributes" : {
                  "COLOR_0" : 1,
                  "NORMAL" : 7,
                  "POSITION" : 10
               },
               "indices" : 4,
               "material" : 0,
               "mode" : 4
            }
         ]
      },
      {
         "name" : "mesh_m2-PolyPaper15_-631010",
         "primitives" : [
            {
               "attributes" : {
                  "COLOR_0" : 2,
                  "NORMAL" : 8,
                  "POSITION" : 11
               },
               "indices" : 5,
               "material" : 0,
               "mode" : 4
            }
         ]
      }
   ],
   "nodes" : [
      {
         "mesh" : 2,
         "name" : "node_MeshObject1341664704-PolyPaper15"
      },
      {
         "mesh" : 1,
         "name" : "node_MeshObject1378143424-PolyPaper15"
      },
      {
         "mesh" : 0,
         "name" : "node_MeshObject1896863488-PolyPaper15"
      },
      {
         "children" : [ 4 ]
      },
      {
         "children" : [ 5 ],
         "extras" : {
            "isTransformNode" : 1
         },
         "translation" : [ 0.7933182497282285, 1.208327097828324, -0.9390121943420833 ]
      },
      {
         "children" : [ 2, 1, 0 ],
         "translation" : [ -0.7933182497282285, -1.208327097828324, 0.9390121943420833 ]
      },
      {
         "camera" : 0,
         "children" : [ 7 ],
         "rotation" : [
            -0.2874336660018068,
            0.4691293117644876,
            0.1647169883658465,
            0.8186378260475297
         ],
         "translation" : [ 6.417068004608154, 6.422299385070801, 2.334315061569214 ]
      },
      {
         "extensions" : {
            "KHR_lights_punctual" : {
               "light" : 0
            }
         },
         "extras" : {
            "isHeadLight" : 1
         },
         "name" : "headLightNode",
         "translation" : [ -3.267660375344501, 1.633830187672251, 1.633830187672251 ]
      },
      {
         "extensions" : {
            "KHR_lights_punctual" : {
               "light" : 1
            }
         },
         "extras" : {
            "isKeyLight" : 1
         },
         "name" : "keyLightNode",
         "rotation" : [ -0.7505326882858236, -0.3752663441429118, 0, 0.5439447166468927 ],
         "scale" : [ 0, 0, 3.300336979097946 ],
         "translation" : [ -2.480911255619932, 7.825525111992757, -4.245649914998303 ]
      }
   ],
   "scene" : 0,
   "scenes" : [
      {
         "extensions" : {
            "GOOGLE_backgrounds" : {
               "color" : [ 0.2705882352941176, 0.3529411764705883, 0.392156862745098 ]
            },
            "GOOGLE_camera_settings" : {}
         },
         "extras" : {
            "GOOGLE_camera_index" : {
               "cameraIndex" : 0,
               "nodeIndex" : 6
            },
            "GOOGLE_geometry_data" : {
               "stats" : {
                  "centroid" : [ 0.8194257234780145, 1.224851153796864, -0.945312935900357 ],
                  "radius" : 3.267660375344501,
                  "stdev" : 1.711380971657759
               },
               "visualCenterPoint" : [ 0.7933182497282285, 1.208327097828324, -0.9390121943420833 ]
            },
            "GOOGLE_hemi_light" : {
               "groundColor" : [ 0.2705882352941176, 0.3529411764705883, 0.392156862745098 ]
            }
         },
         "name" : "defaultScene",
         "nodes" : [ 3, 6, 8 ]
      }
   ]
}
