{
    "asset" : {
        "generator" : "Khronos glTF Blender I/O v1.5.17",
        "version" : "2.0"
    },
    "scene" : 0,
    "scenes" : [
        {
            "name" : "Scene",
            "nodes" : [
                5
            ]
        }
    ],
    "nodes" : [
        {
            "mesh" : 0,
            "name" : "node_MeshObject1341664704-PolyPaper15"
        },
        {
            "mesh" : 1,
            "name" : "node_MeshObject1378143424-PolyPaper15"
        },
        {
            "mesh" : 2,
            "name" : "node_MeshObject1896863488-PolyPaper15"
        },
        {
            "children" : [
                0,
                1,
                2
            ],
            "name" : "Node_5"
        },
        {
            "children" : [
                3
            ],
            "name" : "Node_4"
        },
        {
            "children" : [
                4
            ],
            "name" : "Node_3"
        }
    ],
    "materials" : [
        {
            "name" : "BlocksPaper",
            "pbrMetallicRoughness" : {
                "metallicFactor" : 0,
                "roughnessFactor" : 0.6000000238418579
            }
        }
    ],
    "meshes" : [
        {
            "name" : "mesh_m2-PolyPaper15_-631010",
            "primitives" : [
                {
                    "attributes" : {
                        "POSITION" : 0,
                        "NORMAL" : 1,
                        "COLOR_0" : 2
                    },
                    "indices" : 3,
                    "material" : 0
                }
            ]
        },
        {
            "name" : "mesh_m1-PolyPaper15_-631058",
            "primitives" : [
                {
                    "attributes" : {
                        "POSITION" : 4,
                        "NORMAL" : 5,
                        "COLOR_0" : 6
                    },
                    "indices" : 7,
                    "material" : 0
                }
            ]
        },
        {
            "name" : "mesh_m0-PolyPaper15_-631060",
            "primitives" : [
                {
                    "attributes" : {
                        "POSITION" : 8,
                        "NORMAL" : 9,
                        "COLOR_0" : 10
                    },
                    "indices" : 11,
                    "material" : 0
                }
            ]
        }
    ],
    "accessors" : [
        {
            "bufferView" : 0,
            "componentType" : 5126,
            "count" : 9912,
            "max" : [
                1.833970308303833,
                0.144079327583313,
                0.312427282333374
            ],
            "min" : [
                -2.9970431327819824,
                -0.3336009979248047,
                -0.6240000128746033
            ],
            "type" : "VEC3"
        },
        {
            "bufferView" : 1,
            "componentType" : 5126,
            "count" : 9912,
            "type" : "VEC3"
        },
        {
            "bufferView" : 2,
            "componentType" : 5123,
            "count" : 9912,
            "normalized" : true,
            "type" : "VEC4"
        },
        {
            "bufferView" : 3,
            "componentType" : 5123,
            "count" : 9918,
            "type" : "SCALAR"
        },
        {
            "bufferView" : 4,
            "componentType" : 5126,
            "count" : 9912,
            "max" : [
                3.283565044403076,
                0.20198488235473633,
                0.5327686071395874
            ],
            "min" : [
                -2.4791502952575684,
                -0.209497332572937,
                -0.49051058292388916
            ],
            "type" : "VEC3"
        },
        {
            "bufferView" : 5,
            "componentType" : 5126,
            "count" : 9912,
            "type" : "VEC3"
        },
        {
            "bufferView" : 6,
            "componentType" : 5123,
            "count" : 9912,
            "normalized" : true,
            "type" : "VEC4"
        },
        {
            "bufferView" : 7,
            "componentType" : 5123,
            "count" : 9918,
            "type" : "SCALAR"
        },
        {
            "bufferView" : 8,
            "componentType" : 5126,
            "count" : 682,
            "max" : [
                0.6067262887954712,
                0.06694066524505615,
                0.08260726928710938
            ],
            "min" : [
                -0.6156671643257141,
                -0.06744182109832764,
                -0.0830569863319397
            ],
            "type" : "VEC3"
        },
        {
            "bufferView" : 9,
            "componentType" : 5126,
            "count" : 682,
            "type" : "VEC3"
        },
        {
            "bufferView" : 10,
            "componentType" : 5123,
            "count" : 682,
            "normalized" : true,
            "type" : "VEC4"
        },
        {
            "bufferView" : 11,
            "componentType" : 5123,
            "count" : 684,
            "type" : "SCALAR"
        }
    ],
    "bufferViews" : [
        {
            "buffer" : 0,
            "byteLength" : 118944,
            "byteOffset" : 0
        },
        {
            "buffer" : 0,
            "byteLength" : 118944,
            "byteOffset" : 118944
        },
        {
            "buffer" : 0,
            "byteLength" : 79296,
            "byteOffset" : 237888
        },
        {
            "buffer" : 0,
            "byteLength" : 19836,
            "byteOffset" : 317184
        },
        {
            "buffer" : 0,
            "byteLength" : 118944,
            "byteOffset" : 337020
        },
        {
            "buffer" : 0,
            "byteLength" : 118944,
            "byteOffset" : 455964
        },
        {
            "buffer" : 0,
            "byteLength" : 79296,
            "byteOffset" : 574908
        },
        {
            "buffer" : 0,
            "byteLength" : 19836,
            "byteOffset" : 654204
        },
        {
            "buffer" : 0,
            "byteLength" : 8184,
            "byteOffset" : 674040
        },
        {
            "buffer" : 0,
            "byteLength" : 8184,
            "byteOffset" : 682224
        },
        {
            "buffer" : 0,
            "byteLength" : 5456,
            "byteOffset" : 690408
        },
        {
            "buffer" : 0,
            "byteLength" : 1368,
            "byteOffset" : 695864
        }
    ],
    "buffers" : [
        {
            "byteLength" : 697232,
            "uri" : "data:application/octet-stream;base64,"
        }
    ]
}
