{
    "asset" : {
        "generator" : "Khronos glTF Blender I/O v1.5.17",
        "version" : "2.0"
    },
    "scene" : 0,
    "scenes" : [
        {
            "name" : "Scene",
            "nodes" : [
                3
            ]
        }
    ],
    "nodes" : [
        {
            "mesh" : 0,
            "name" : "node_MeshObject-814447424-PolyPaper20"
        },
        {
            "children" : [
                0
            ],
            "name" : "Node_3"
        },
        {
            "children" : [
                1
            ],
            "name" : "Node_2"
        },
        {
            "children" : [
                2
            ],
            "name" : "Node_1"
        }
    ],
    "materials" : [
        {
            "name" : "BlocksPaper.002",
            "pbrMetallicRoughness" : {
                "metallicFactor" : 0,
                "roughnessFactor" : 0.6000000238418579
            }
        }
    ],
    "meshes" : [
        {
            "name" : "mesh_m0-PolyPaper20_-629972",
            "primitives" : [
                {
                    "attributes" : {
                        "POSITION" : 0,
                        "NORMAL" : 1,
                        "COLOR_0" : 2
                    },
                    "indices" : 3,
                    "material" : 0
                }
            ]
        }
    ],
    "accessors" : [
        {
            "bufferView" : 0,
            "componentType" : 5126,
            "count" : 2142,
            "max" : [
                0.08149676024913788,
                0.08064275979995728,
                0.08329415321350098
            ],
            "min" : [
                -0.08188149333000183,
                -0.09224969148635864,
                -0.07994341850280762
            ],
            "type" : "VEC3"
        },
        {
            "bufferView" : 1,
            "componentType" : 5126,
            "count" : 2142,
            "type" : "VEC3"
        },
        {
            "bufferView" : 2,
            "componentType" : 5123,
            "count" : 2142,
            "normalized" : true,
            "type" : "VEC4"
        },
        {
            "bufferView" : 3,
            "componentType" : 5123,
            "count" : 2154,
            "type" : "SCALAR"
        }
    ],
    "bufferViews" : [
        {
            "buffer" : 0,
            "byteLength" : 25704,
            "byteOffset" : 0
        },
        {
            "buffer" : 0,
            "byteLength" : 25704,
            "byteOffset" : 25704
        },
        {
            "buffer" : 0,
            "byteLength" : 17136,
            "byteOffset" : 51408
        },
        {
            "buffer" : 0,
            "byteLength" : 4308,
            "byteOffset" : 68544
        }
    ],
    "buffers" : [
        {
            "byteLength" : 72852,
            "uri" : "data:application/octet-stream;base64,"
        }
    ]
}
