{
    "asset" : {
        "generator" : "Khronos glTF Blender I/O v1.5.17",
        "version" : "2.0"
    },
    "scene" : 0,
    "scenes" : [
        {
            "name" : "Scene",
            "nodes" : [
                3,
                5,
                6
            ]
        }
    ],
    "nodes" : [
        {
            "mesh" : 0,
            "name" : "node_MeshObject-1652939904-PolyPaper13",
            "translation" : [
                0.4912351071834564,
                1.2693825960159302,
                -3.803290605545044
            ]
        },
        {
            "children" : [
                0
            ],
            "name" : "Node_3",
            "translation" : [
                -0.43385085463523865,
                -1.2451826333999634,
                3.76845121383667
            ]
        },
        {
            "children" : [
                1
            ],
            "name" : "Node_2",
            "translation" : [
                0.43385085463523865,
                1.2451826333999634,
                -3.76845121383667
            ]
        },
        {
            "children" : [
                2
            ],
            "name" : "Node_1"
        },
        {
            "name" : "headLightNode",
            "translation" : [
                -1.351124882698059,
                0.6755624413490295,
                -0.6755624413490295
            ]
        },
        {
            "children" : [
                4
            ],
            "name" : "Camera.001",
            "rotation" : [
                0.608146607875824,
                -0.21628177165985107,
                0.17702822387218475,
                0.7429946064949036
            ],
            "translation" : [
                -2.8742809295654297,
                2.507233142852783,
                1.4602073431015015
            ]
        },
        {
            "name" : "keyLightNode",
            "rotation" : [
                -0.14607979357242584,
                -0.26535341143608093,
                0.26535341143608093,
                0.9153338670730591
            ],
            "scale" : [
                0,
                1.3646360635757446,
                0
            ],
            "translation" : [
                -0.8867303729057312,
                3.9772632122039795,
                -5.17442512512207
            ]
        }
    ],
    "materials" : [
        {
            "name" : "BlocksPaper",
            "pbrMetallicRoughness" : {
                "metallicFactor" : 0,
                "roughnessFactor" : 0.6000000238418579
            }
        }
    ],
    "meshes" : [
        {
            "name" : "mesh_m0-PolyPaper13_-626432",
            "primitives" : [
                {
                    "attributes" : {
                        "POSITION" : 0,
                        "NORMAL" : 1,
                        "COLOR_0" : 2
                    },
                    "indices" : 3,
                    "material" : 0
                }
            ]
        }
    ],
    "accessors" : [
        {
            "bufferView" : 0,
            "componentType" : 5126,
            "count" : 4448,
            "max" : [
                1.0327054262161255,
                1.1487270593643188,
                1.121342658996582
            ],
            "min" : [
                -1.1610305309295654,
                -1.0822099447250366,
                -1.0325872898101807
            ],
            "type" : "VEC3"
        },
        {
            "bufferView" : 1,
            "componentType" : 5126,
            "count" : 4448,
            "type" : "VEC3"
        },
        {
            "bufferView" : 2,
            "componentType" : 5123,
            "count" : 4448,
            "normalized" : true,
            "type" : "VEC4"
        },
        {
            "bufferView" : 3,
            "componentType" : 5123,
            "count" : 4476,
            "type" : "SCALAR"
        }
    ],
    "bufferViews" : [
        {
            "buffer" : 0,
            "byteLength" : 53376,
            "byteOffset" : 0
        },
        {
            "buffer" : 0,
            "byteLength" : 53376,
            "byteOffset" : 53376
        },
        {
            "buffer" : 0,
            "byteLength" : 35584,
            "byteOffset" : 106752
        },
        {
            "buffer" : 0,
            "byteLength" : 8952,
            "byteOffset" : 142336
        }
    ],
    "buffers" : [
        {
            "byteLength" : 151288,
            "uri" : "data:application/octet-stream;base64,"
        }
    ]
}
