{
    "asset" : {
        "generator" : "Khronos glTF Blender I/O v1.5.17",
        "version" : "2.0"
    },
    "scene" : 0,
    "scenes" : [
        {
            "name" : "Scene",
            "nodes" : [
                3
            ]
        }
    ],
    "nodes" : [
        {
            "mesh" : 0,
            "name" : "node_MeshObject-1631424384-PolyPaper13"
        },
        {
            "children" : [
                0
            ],
            "name" : "Node_3"
        },
        {
            "children" : [
                1
            ],
            "name" : "Node_2"
        },
        {
            "children" : [
                2
            ],
            "name" : "Node_1"
        }
    ],
    "materials" : [
        {
            "name" : "BlocksPaper.003",
            "pbrMetallicRoughness" : {
                "metallicFactor" : 0,
                "roughnessFactor" : 0.6000000238418579
            }
        }
    ],
    "meshes" : [
        {
            "name" : "mesh_m0-PolyPaper13_-630646",
            "primitives" : [
                {
                    "attributes" : {
                        "POSITION" : 0,
                        "NORMAL" : 1,
                        "COLOR_0" : 2
                    },
                    "indices" : 3,
                    "material" : 0
                }
            ]
        }
    ],
    "accessors" : [
        {
            "bufferView" : 0,
            "componentType" : 5126,
            "count" : 3150,
            "max" : [
                0.13332152366638184,
                0.14431416988372803,
                0.12793827056884766
            ],
            "min" : [
                -0.14034318923950195,
                -0.14125847816467285,
                -0.1468491554260254
            ],
            "type" : "VEC3"
        },
        {
            "bufferView" : 1,
            "componentType" : 5126,
            "count" : 3150,
            "type" : "VEC3"
        },
        {
            "bufferView" : 2,
            "componentType" : 5123,
            "count" : 3150,
            "normalized" : true,
            "type" : "VEC4"
        },
        {
            "bufferView" : 3,
            "componentType" : 5123,
            "count" : 3156,
            "type" : "SCALAR"
        }
    ],
    "bufferViews" : [
        {
            "buffer" : 0,
            "byteLength" : 37800,
            "byteOffset" : 0
        },
        {
            "buffer" : 0,
            "byteLength" : 37800,
            "byteOffset" : 37800
        },
        {
            "buffer" : 0,
            "byteLength" : 25200,
            "byteOffset" : 75600
        },
        {
            "buffer" : 0,
            "byteLength" : 6312,
            "byteOffset" : 100800
        }
    ],
    "buffers" : [
        {
            "byteLength" : 107112,
            "uri" : "data:application/octet-stream;base64,"
        }
    ]
}
