{
   "accessors" : [
      {
         "bufferView" : 2,
         "byteOffset" : 0,
         "componentType" : 5126,
         "count" : 9998,
         "max" : [ 1, 1, 1, 1 ],
         "min" : [ 0, 0.09387587010860443, 0, 1 ],
         "name" : "accessor_color_m0-PolyPaper13_-598374",
         "type" : "VEC4"
      },
      {
         "bufferView" : 2,
         "byteOffset" : 159968,
         "componentType" : 5126,
         "count" : 9744,
         "max" : [ 0.6320426464080811, 0.6940805315971375, 0.7226724624633789, 1 ],
         "min" : [ 0.6320426464080811, 0.6940805315971375, 0.7226724624633789, 1 ],
         "name" : "accessor_color_m1-PolyPaper15_-625834",
         "type" : "VEC4"
      },
      {
         "bufferView" : 2,
         "byteOffset" : 315872,
         "componentType" : 5126,
         "count" : 9682,
         "max" : [ 1, 0.7372047901153564, 0.8277258276939392, 1 ],
         "min" : [ 0.1939721554517746, 0.05284162983298302, 0.01188133470714092, 1 ],
         "name" : "accessor_color_m2-PolyPaper19_-598376",
         "type" : "VEC4"
      },
      {
         "bufferView" : 2,
         "byteOffset" : 470784,
         "componentType" : 5126,
         "count" : 5376,
         "max" : [ 0.6320426464080811, 0.6940805315971375, 0.7226724624633789, 1 ],
         "min" : [ 0.6320426464080811, 0.6940805315971375, 0.7226724624633789, 1 ],
         "name" : "accessor_color_m3-PolyPaper15_-625836",
         "type" : "VEC4"
      },
      {
         "bufferView" : 2,
         "byteOffset" : 556800,
         "componentType" : 5126,
         "count" : 9906,
         "max" : [ 1, 0.835527777671814, 0.7893137335777283, 1 ],
         "min" : [ 5.692175545846112e-05, 0.09387587010860443, 0, 1 ],
         "name" : "accessor_color_m4-PolyPaper15_-625832",
         "type" : "VEC4"
      },
      {
         "bufferView" : 0,
         "byteOffset" : 0,
         "componentType" : 5123,
         "count" : 10884,
         "max" : [ 9997 ],
         "min" : [ 0 ],
         "name" : "accessor_indices_0_m0-PolyPaper13_-598374",
         "type" : "SCALAR"
      },
      {
         "bufferView" : 0,
         "byteOffset" : 21768,
         "componentType" : 5123,
         "count" : 9918,
         "max" : [ 9743 ],
         "min" : [ 0 ],
         "name" : "accessor_indices_0_m1-PolyPaper15_-625834",
         "type" : "SCALAR"
      },
      {
         "bufferView" : 0,
         "byteOffset" : 41604,
         "componentType" : 5123,
         "count" : 10968,
         "max" : [ 9681 ],
         "min" : [ 0 ],
         "name" : "accessor_indices_0_m2-PolyPaper19_-598376",
         "type" : "SCALAR"
      },
      {
         "bufferView" : 0,
         "byteOffset" : 63540,
         "componentType" : 5123,
         "count" : 5472,
         "max" : [ 5375 ],
         "min" : [ 0 ],
         "name" : "accessor_indices_0_m3-PolyPaper15_-625836",
         "type" : "SCALAR"
      },
      {
         "bufferView" : 0,
         "byteOffset" : 74484,
         "componentType" : 5123,
         "count" : 10344,
         "max" : [ 9905 ],
         "min" : [ 0 ],
         "name" : "accessor_indices_0_m4-PolyPaper15_-625832",
         "type" : "SCALAR"
      },
      {
         "bufferView" : 1,
         "byteOffset" : 119976,
         "componentType" : 5126,
         "count" : 9998,
         "max" : [ 0.9993117, 0.9980432, 0.999633 ],
         "min" : [ -0.9974402999999999, -0.9995991, -0.9996905 ],
         "name" : "accessor_normal_m0-PolyPaper13_-598374",
         "type" : "VEC3"
      },
      {
         "bufferView" : 1,
         "byteOffset" : 356880,
         "componentType" : 5126,
         "count" : 9744,
         "max" : [ 0.9959053, 0.9999416, 0.9994942999999999 ],
         "min" : [ -0.9978567, -0.9999558, -0.9998324 ],
         "name" : "accessor_normal_m1-PolyPaper15_-625834",
         "type" : "VEC3"
      },
      {
         "bufferView" : 1,
         "byteOffset" : 589992,
         "componentType" : 5126,
         "count" : 9682,
         "max" : [ 0.9998677, 0.9988326, 0.9988849 ],
         "min" : [ -0.9991695, -0.9998129, -0.9999841 ],
         "name" : "accessor_normal_m2-PolyPaper19_-598376",
         "type" : "VEC3"
      },
      {
         "bufferView" : 1,
         "byteOffset" : 770688,
         "componentType" : 5126,
         "count" : 5376,
         "max" : [ 0.996604, 0.9998757, 0.9994345 ],
         "min" : [ -0.9998181, -0.9999869, -0.9967394000000001 ],
         "name" : "accessor_normal_m3-PolyPaper15_-625836",
         "type" : "VEC3"
      },
      {
         "bufferView" : 1,
         "byteOffset" : 954072,
         "componentType" : 5126,
         "count" : 9906,
         "max" : [ 0.9998604, 0.9998213, 0.9998795 ],
         "min" : [ -0.9969043, -0.9991467000000001, -0.9993982 ],
         "name" : "accessor_normal_m4-PolyPaper15_-625832",
         "type" : "VEC3"
      },
      {
         "bufferView" : 1,
         "byteOffset" : 0,
         "componentType" : 5126,
         "count" : 9998,
         "max" : [ 3.326258, 2.515776, 3.11949 ],
         "min" : [ -1.347876, 0.1871726, -4.835878 ],
         "name" : "accessor_position_m0-PolyPaper13_-598374",
         "type" : "VEC3"
      },
      {
         "bufferView" : 1,
         "byteOffset" : 239952,
         "componentType" : 5126,
         "count" : 9744,
         "max" : [ 2.892003, 1.417849, -0.5343272999999999 ],
         "min" : [ -1.9391, 0.9401100999999999, -1.470767 ],
         "name" : "accessor_position_m1-PolyPaper15_-625834",
         "type" : "VEC3"
      },
      {
         "bufferView" : 1,
         "byteOffset" : 473808,
         "componentType" : 5126,
         "count" : 9682,
         "max" : [ 3.079372, 2.405166, 4.888249 ],
         "min" : [ -0.4348201, 0.8028437, -2.694975 ],
         "name" : "accessor_position_m2-PolyPaper19_-598376",
         "type" : "VEC3"
      },
      {
         "bufferView" : 1,
         "byteOffset" : 706176,
         "componentType" : 5126,
         "count" : 5376,
         "max" : [ -0.3816734, 1.197927, -0.5364696 ],
         "min" : [ -2.034041, 0.9524872, -1.385838 ],
         "name" : "accessor_position_m3-PolyPaper15_-625836",
         "type" : "VEC3"
      },
      {
         "bufferView" : 1,
         "byteOffset" : 835200,
         "componentType" : 5126,
         "count" : 9906,
         "max" : [ 3.728622, 2.400327, 4.367538 ],
         "min" : [ -0.5620818, 0.1950535, -4.763917 ],
         "name" : "accessor_position_m4-PolyPaper15_-625832",
         "type" : "VEC3"
      }
   ],
   "asset" : {
      "copyright" : "Unknown",
      "extras" : {
         "GOOGLE_processor_version" : 294144208
      },
      "generator" : "glTF 1-to-2 Upgrader for Google Blocks",
      "version" : "2.0"
   },
   "bufferViews" : [
      {
         "buffer" : 0,
         "byteLength" : 95172,
         "byteOffset" : 0,
         "name" : "ushortBufferView",
         "target" : 34963
      },
      {
         "buffer" : 0,
         "byteLength" : 1072944,
         "byteOffset" : 95172,
         "byteStride" : 12,
         "name" : "vec3BufferView",
         "target" : 34962
      },
      {
         "buffer" : 0,
         "byteLength" : 715296,
         "byteOffset" : 1168116,
         "byteStride" : 16,
         "name" : "vec4BufferView",
         "target" : 34962
      }
   ],
   "buffers" : [
      {
         "byteLength" : 1883412,
         "name" : "model",
         "uri" : "model.bin"
      }
   ],
   "cameras" : [
      {
         "perspective" : {
            "yfov" : 0.7853981633974483,
            "znear" : 0.1000000014901161
         },
         "type" : "perspective"
      }
   ],
   "extensions" : {
      "KHR_lights_punctual" : {
         "lights" : [
            {
               "color" : [ 1, 0.9333333333333333, 0.8666666666666667 ],
               "intensity" : 0.25,
               "name" : "headLight",
               "type" : "directional"
            },
            {
               "color" : [ 1, 0.9333333333333333, 0.8666666666666667 ],
               "intensity" : 0.324999988079071,
               "name" : "keyLight",
               "type" : "directional"
            }
         ]
      }
   },
   "extensionsUsed" : [ "GOOGLE_backgrounds", "GOOGLE_camera_settings", "KHR_lights_punctual" ],
   "extras" : {
      "GOOGLE_initial_camera_motion" : {
         "motionPath" : "FULL_ROTATION"
      },
      "GOOGLE_lighting_rig" : {
         "disableShadows" : false
      }
   },
   "materials" : [
      {
         "alphaMode" : "OPAQUE",
         "doubleSided" : false,
         "name" : "BlocksPaper",
         "pbrMetallicRoughness" : {
            "baseColorFactor" : [ 1, 1, 1, 1 ],
            "metallicFactor" : 0,
            "roughnessFactor" : 0.6
         }
      },
      {
         "alphaMode" : "BLEND",
         "doubleSided" : false,
         "name" : "BlocksGlass",
         "pbrMetallicRoughness" : {
            "baseColorFactor" : [ 0.2, 0.2, 1, 0.3 ],
            "metallicFactor" : 1,
            "roughnessFactor" : 0.4
         }
      },
      {
         "alphaMode" : "OPAQUE",
         "doubleSided" : true,
         "name" : "BlocksGem",
         "pbrMetallicRoughness" : {
            "baseColorFactor" : [ 1, 0.4, 1, 1 ],
            "metallicFactor" : 0,
            "roughnessFactor" : 0.1
         }
      }
   ],
   "meshes" : [
      {
         "name" : "mesh_m0-PolyPaper13_-598374",
         "primitives" : [
            {
               "attributes" : {
                  "COLOR_0" : 0,
                  "NORMAL" : 10,
                  "POSITION" : 15
               },
               "indices" : 5,
               "material" : 0,
               "mode" : 4
            }
         ]
      },
      {
         "name" : "mesh_m1-PolyPaper15_-625834",
         "primitives" : [
            {
               "attributes" : {
                  "COLOR_0" : 1,
                  "NORMAL" : 11,
                  "POSITION" : 16
               },
               "indices" : 6,
               "material" : 0,
               "mode" : 4
            }
         ]
      },
      {
         "name" : "mesh_m2-PolyPaper19_-598376",
         "primitives" : [
            {
               "attributes" : {
                  "COLOR_0" : 2,
                  "NORMAL" : 12,
                  "POSITION" : 17
               },
               "indices" : 7,
               "material" : 0,
               "mode" : 4
            }
         ]
      },
      {
         "name" : "mesh_m3-PolyPaper15_-625836",
         "primitives" : [
            {
               "attributes" : {
                  "COLOR_0" : 3,
                  "NORMAL" : 13,
                  "POSITION" : 18
               },
               "indices" : 8,
               "material" : 0,
               "mode" : 4
            }
         ]
      },
      {
         "name" : "mesh_m4-PolyPaper15_-625832",
         "primitives" : [
            {
               "attributes" : {
                  "COLOR_0" : 4,
                  "NORMAL" : 14,
                  "POSITION" : 19
               },
               "indices" : 9,
               "material" : 0,
               "mode" : 4
            }
         ]
      }
   ],
   "nodes" : [
      {
         "mesh" : 0,
         "name" : "node_MeshObject-2024788544-PolyPaper13"
      },
      {
         "mesh" : 3,
         "name" : "node_MeshObject1346370176-PolyPaper15"
      },
      {
         "mesh" : 2,
         "name" : "node_MeshObject175458112-PolyPaper19"
      },
      {
         "mesh" : 4,
         "name" : "node_MeshObject308930048-PolyPaper15"
      },
      {
         "mesh" : 1,
         "name" : "node_MeshObject827650112-PolyPaper15"
      },
      {
         "children" : [ 6 ]
      },
      {
         "children" : [ 7 ],
         "extras" : {
            "isTransformNode" : 1
         },
         "translation" : [ 0.7108581824880655, 1.414912497807116, -0.7928673411346845 ]
      },
      {
         "children" : [ 0, 4, 2, 1, 3 ],
         "translation" : [ -0.7108581824880655, -1.414912497807116, 0.7928673411346845 ]
      },
      {
         "camera" : 0,
         "children" : [ 9 ],
         "rotation" : [
            0.1201905889295571,
            0.8383952655914378,
            0.2055140751392355,
            -0.4903178213019525
         ],
         "translation" : [ -5.130786895751953, 4.534945011138916, -4.041742324829102 ]
      },
      {
         "extensions" : {
            "KHR_lights_punctual" : {
               "light" : 0
            }
         },
         "extras" : {
            "isHeadLight" : 1
         },
         "name" : "headLightNode",
         "translation" : [ -6.127154097821822, 3.063577048910911, 3.063577048910911 ]
      },
      {
         "extensions" : {
            "KHR_lights_punctual" : {
               "light" : 1
            }
         },
         "extras" : {
            "isKeyLight" : 1
         },
         "name" : "keyLightNode",
         "rotation" : [ -0.7505326882858236, -0.3752663441429118, 0, 0.5439447166468927 ],
         "scale" : [ 0, 0, 6.18842563880004 ],
         "translation" : [ -5.398582771650214, 13.69322786086806, -6.835341370816048 ]
      }
   ],
   "scene" : 0,
   "scenes" : [
      {
         "extensions" : {
            "GOOGLE_backgrounds" : {
               "color" : [ 0.1490196078431373, 0.196078431372549, 0.2196078431372549 ]
            },
            "GOOGLE_camera_settings" : {}
         },
         "extras" : {
            "GOOGLE_camera_index" : {
               "cameraIndex" : 0,
               "nodeIndex" : 8
            },
            "GOOGLE_geometry_data" : {
               "stats" : {
                  "centroid" : [ 0.789842867149826, 1.31637658326798, -0.6469157320160074 ],
                  "radius" : 6.127154097821822,
                  "stdev" : 2.457540715820978
               },
               "visualCenterPoint" : [ 0.7108581824880655, 1.414912497807116, -0.7928673411346845 ]
            },
            "GOOGLE_hemi_light" : {
               "groundColor" : [ 0.1490196078431373, 0.196078431372549, 0.2196078431372549 ]
            }
         },
         "name" : "defaultScene",
         "nodes" : [ 5, 8, 10 ]
      }
   ]
}
